<?xml version="1.0" encoding="UTF-8"?>
<svg version="1.1" xmlns="http://www.w3.org/2000/svg" width="797" height="722">
<path d="M0 0 C2.15131969 -0.00131077 4.3026389 -0.00394216 6.45395559 -0.0077675 C12.3216243 -0.01443112 18.18912671 -0.00253695 24.05677426 0.01256669 C30.40077437 0.02558268 36.74476592 0.02113367 43.08877563 0.01885986 C54.06563619 0.01729063 65.04244219 0.02655767 76.01928902 0.04357338 C87.52405617 0.06136149 99.02880188 0.07287867 110.53358269 0.07613182 C111.60902127 0.07644115 111.60902127 0.07644115 112.70618589 0.07675673 C116.34767684 0.07777181 119.98916781 0.07867593 123.6306588 0.07953735 C149.38256618 0.08582841 175.13444562 0.10601196 200.88633728 0.13444519 C225.8944738 0.16202523 250.90260265 0.18326295 275.91075134 0.19596863 C277.06827887 0.1965605 277.06827887 0.1965605 278.24919079 0.19716432 C285.99919836 0.20112009 293.74920598 0.2049475 301.49921366 0.2086809 C317.28502916 0.2162883 333.07084416 0.22475205 348.85665894 0.23373413 C349.58236827 0.234146 350.3080776 0.23455787 351.05577813 0.23498222 C399.46732782 0.26255588 447.87885886 0.31077595 496.29039001 0.36076355 C496.29039001 20.49076355 496.29039001 40.62076355 496.29039001 61.36076355 C501.05476501 61.27826355 505.81914001 61.19576355 510.72789001 61.11076355 C533.38965522 60.99189991 553.47999882 65.59251992 571.29039001 80.36076355 C572.14117126 81.04912292 572.99195251 81.7374823 573.86851501 82.44670105 C592.64817042 98.40364752 601.99407554 120.24946156 604.29039001 144.36076355 C604.29039001 150.63076355 604.29039001 156.90076355 604.29039001 163.36076355 C625.41039001 163.36076355 646.53039001 163.36076355 668.29039001 163.36076355 C668.38086983 221.01866905 668.45246591 278.67655822 668.49465133 336.3345206 C668.49964038 343.14600275 668.50482664 349.95748475 668.51011658 356.76896667 C668.51063961 357.44676644 668.51116265 358.1245662 668.51170154 358.82290535 C668.52872621 380.76543474 668.55875592 402.70792275 668.5955789 424.6504271 C668.63444491 447.85267332 668.65838792 471.05489495 668.66674399 494.25717604 C668.67222457 508.14706676 668.68951673 522.03683862 668.72205588 535.92669274 C668.74324645 545.45947287 668.74957977 554.9921918 668.74439552 564.52499376 C668.74184083 570.01982817 668.74567767 575.51445527 668.76721191 581.00925255 C668.78682467 586.05085587 668.78756544 591.09211449 668.77398559 596.13373442 C668.77230979 597.94697026 668.77725839 599.76022854 668.78992274 601.57342093 C669.00877688 634.8737981 656.30050533 664.34854958 633.04039001 688.04826355 C618.35719228 702.53321334 600.89688727 712.6988568 580.97789001 718.36076355 C580.33497009 718.54421326 579.69205017 718.72766296 579.02964783 718.91667175 C563.86009335 722.8026996 548.3259506 722.6498501 532.79229736 722.62145996 C530.43406799 722.62448487 528.0758396 722.62837605 525.71761292 722.63305253 C519.9460556 722.64222698 514.17455093 722.64219698 508.40298895 722.63814091 C501.48123558 722.63379349 494.55950621 722.64109206 487.63775732 722.64863219 C473.289831 722.66383357 458.9419224 722.66558122 444.59398971 722.66310916 C433.50997604 722.66127298 422.42596814 722.66304291 411.34195518 722.6673336 C409.7467273 722.66793602 408.15149941 722.66853722 406.55627152 722.66913721 C404.15209161 722.67004451 401.7479117 722.67095318 399.34373179 722.67186956 C377.00439643 722.68029338 354.66506323 722.68463875 332.32572651 722.68046284 C331.48441628 722.68030646 330.64310606 722.68015009 329.77630158 722.67998897 C325.51269583 722.67918325 321.24909008 722.67833748 316.98548434 722.67747567 C316.13879543 722.67730458 315.29210652 722.67713349 314.41976038 722.67695722 C312.70755147 722.67661056 310.99534256 722.67626203 309.28313365 722.67591163 C282.64890197 722.670556 256.01470341 722.67848271 229.38047791 722.69694519 C199.42110543 722.71768855 169.46175346 722.72838342 139.5023734 722.7243697 C136.30421682 722.72397439 133.10606025 722.72361284 129.90790367 722.72327232 C129.12050149 722.72318159 128.3330993 722.72309086 127.52183644 722.72299738 C115.66579726 722.72183428 103.80977888 722.72845775 91.95374489 722.73908424 C78.46001069 722.75116665 64.96632212 722.75266034 51.47258721 722.74029408 C44.59406522 722.7342714 37.71562437 722.73287555 30.83710861 722.74529648 C24.52849956 722.75619576 18.22005351 722.75300392 11.91145196 722.73903479 C9.64104678 722.73639897 7.37062865 722.73871891 5.10023621 722.74677066 C-12.57832742 722.80506613 -30.77969417 722.2627944 -47.58460999 716.17326355 C-48.4455426 715.87283142 -49.30647522 715.57239929 -50.1934967 715.26286316 C-66.95439467 709.20468849 -80.76851292 699.54193436 -93.70960999 687.36076355 C-94.30128967 686.83353699 -94.89296936 686.30631042 -95.50257874 685.7631073 C-115.52596802 667.16656286 -127.82447018 637.50996758 -128.98939979 610.47580087 C-129.13269991 605.02655473 -129.11513023 599.57806515 -129.09729004 594.12741089 C-129.10147119 592.02746653 -129.10695296 589.92752444 -129.11360985 587.82758647 C-129.12798066 582.10116093 -129.12384604 576.37488035 -129.11644304 570.64844716 C-129.11169285 564.45538133 -129.12423754 558.26234604 -129.13446045 552.06929016 C-129.15062781 540.65258278 -129.15310146 529.23593913 -129.14815546 517.81922572 C-129.14358709 507.26813776 -129.14421138 496.71706681 -129.1499958 486.16597939 C-129.15075269 484.74721061 -129.15150867 483.32844184 -129.15226375 481.90967307 C-129.15340902 479.77135671 -129.15455891 477.63304035 -129.15572299 475.494724 C-129.16641794 455.63138019 -129.1711636 435.76804201 -129.16325283 415.90469646 C-129.16295566 415.15694723 -129.16265848 414.409198 -129.16235231 413.6387897 C-129.15990371 407.56768644 -129.15729195 401.49658324 -129.15466817 395.42548005 C-129.14456824 371.75161857 -129.15292042 348.07782803 -129.17616272 324.40397644 C-129.20227359 297.76561179 -129.21507306 271.12728984 -129.20797497 244.48891193 C-129.20725898 241.64493963 -129.20658458 238.80096732 -129.20593452 235.95699501 C-129.20576472 235.25681038 -129.20559491 234.55662575 -129.20541995 233.83522341 C-129.2031235 223.29695934 -129.2110626 212.7587351 -129.224226 202.22047997 C-129.23918165 190.22649704 -129.23954916 178.23263223 -129.22215509 166.23864301 C-129.21366436 160.12575566 -129.21144847 154.01304541 -129.22680664 147.90016747 C-129.24072101 142.2922855 -129.23580423 136.68473125 -129.2165674 131.07686792 C-129.21282772 129.06021081 -129.2156699 127.04352701 -129.22617906 125.02689382 C-129.37645446 93.95316816 -120.70445215 66.3177173 -100.70960999 42.36076355 C-99.9632428 41.4377948 -99.21687561 40.51482605 -98.44789124 39.56388855 C-85.11109735 23.89485397 -67.05288501 12.6632202 -47.70960999 5.98576355 C-47.05935852 5.75896912 -46.40910706 5.53217468 -45.739151 5.29850769 C-30.70756303 0.49411346 -15.63466396 -0.07155674 0 0 Z " fill="#FAE64E" transform="translate(128.70960998535156,-0.3607635498046875)"/>
<path d="M0 0 C2.15131969 -0.00131077 4.3026389 -0.00394216 6.45395559 -0.0077675 C12.3216243 -0.01443112 18.18912671 -0.00253695 24.05677426 0.01256669 C30.40077437 0.02558268 36.74476592 0.02113367 43.08877563 0.01885986 C54.06563619 0.01729063 65.04244219 0.02655767 76.01928902 0.04357338 C87.52405617 0.06136149 99.02880188 0.07287867 110.53358269 0.07613182 C111.60902127 0.07644115 111.60902127 0.07644115 112.70618589 0.07675673 C116.34767684 0.07777181 119.98916781 0.07867593 123.6306588 0.07953735 C149.38256618 0.08582841 175.13444562 0.10601196 200.88633728 0.13444519 C225.8944738 0.16202523 250.90260265 0.18326295 275.91075134 0.19596863 C277.06827887 0.1965605 277.06827887 0.1965605 278.24919079 0.19716432 C285.99919836 0.20112009 293.74920598 0.2049475 301.49921366 0.2086809 C317.28502916 0.2162883 333.07084416 0.22475205 348.85665894 0.23373413 C349.58236827 0.234146 350.3080776 0.23455787 351.05577813 0.23498222 C399.46732782 0.26255588 447.87885886 0.31077595 496.29039001 0.36076355 C496.29039001 20.49076355 496.29039001 40.62076355 496.29039001 61.36076355 C490.38761169 61.36440918 484.48483337 61.36805481 478.40318298 61.37181091 C439.40170748 61.39722766 400.40024078 61.42710381 361.39878845 61.47740173 C360.73278177 61.47825924 360.06677509 61.47911675 359.38058639 61.48000025 C344.90473606 61.49866804 330.42888706 61.51822078 315.95303917 61.5386845 C308.85357562 61.54871525 301.7541118 61.55855054 294.65464783 61.56828308 C293.59495289 61.56974079 293.59495289 61.56974079 292.51384997 61.57122795 C269.63583079 61.60260727 246.75782338 61.62109265 223.8797864 61.63285602 C200.35986973 61.64501778 176.8400022 61.67025863 153.32011827 61.71183969 C138.16999498 61.73859611 123.01996203 61.75396004 107.86981452 61.75219312 C97.93381225 61.75216333 87.9978987 61.76682089 78.06193101 61.79292783 C72.33243947 61.80755158 66.60312987 61.81579563 60.87362289 61.80656624 C55.61991223 61.79824676 50.36656629 61.8085234 45.11290956 61.83310017 C43.22031705 61.83875886 41.32768968 61.83780735 39.43510795 61.829276 C24.15053826 61.76632329 10.34984157 63.66635637 -3.52210999 70.61076355 C-4.32269836 71.00279968 -5.12328674 71.39483582 -5.94813538 71.79875183 C-12.39114354 75.03494213 -18.18689384 78.70468901 -23.70960999 83.36076355 C-24.69187561 84.1702948 -25.67414124 84.97982605 -26.68617249 85.81388855 C-44.05936139 100.60960007 -57.12363427 123.58699936 -59.51011717 146.44450617 C-59.96543084 153.10044438 -59.850086 159.78385414 -59.84332275 166.45225525 C-59.84519247 168.19967359 -59.84749381 169.94709152 -59.85018808 171.69450879 C-59.8562926 176.48334875 -59.85617407 181.27217122 -59.8549937 186.06101418 C-59.85478935 191.23088982 -59.86031169 196.4007599 -59.86505127 201.57063293 C-59.87335092 211.6944562 -59.8761058 221.81827364 -59.87666365 231.94210002 C-59.87713912 240.17261047 -59.87919543 248.403119 -59.88236427 256.63362885 C-59.89116887 279.97771491 -59.89578394 303.32179637 -59.8950338 326.66588411 C-59.89497386 328.55285724 -59.89497386 328.55285724 -59.89491272 330.47795105 C-59.8948514 332.36723272 -59.8948514 332.36723272 -59.89478884 334.2946817 C-59.89438239 354.70662565 -59.90395206 375.11855116 -59.91805109 395.53048977 C-59.93241954 416.49821888 -59.93932102 437.46593899 -59.93845731 458.43367314 C-59.93812551 470.20188632 -59.94086522 481.97008015 -59.95163536 493.73828888 C-59.96074651 503.75781981 -59.96291054 513.77732262 -59.95612594 523.7968559 C-59.95286389 528.90627094 -59.9527927 534.01563207 -59.96147919 539.12504196 C-59.96935894 543.80819967 -59.96789769 548.49126082 -59.95919506 553.17441621 C-59.95766332 554.86279306 -59.95946383 556.55117716 -59.96505513 558.23954543 C-60.00495621 571.14986255 -59.30599997 583.55730825 -54.64710999 595.73576355 C-54.34256897 596.54029968 -54.03802795 597.34483582 -53.72425842 598.17375183 C-43.49012012 624.17052023 -24.37629487 641.90098464 0.46226501 653.89201355 C16.74949384 660.81197606 34.46318623 661.95883934 51.92399597 661.86196899 C53.90991256 661.8658737 55.89582634 661.87152342 57.88173366 661.87873989 C63.2743244 661.89334406 68.66661865 661.88340397 74.05919933 661.86900318 C79.89971459 661.85781101 85.74019102 661.86986291 91.58070374 661.87884521 C102.9956685 661.89272288 114.41052205 661.88526258 125.82548144 661.87016963 C135.10640209 661.85836871 144.38729292 661.85482125 153.66822052 661.85708809 C154.32975632 661.8572485 154.99129212 661.85740892 155.67287446 661.8575742 C158.35882048 661.85823787 161.04476648 661.8589403 163.73071247 661.85969954 C188.87666113 661.8667084 214.02255072 661.85128218 239.16848436 661.82507608 C261.47346102 661.80195383 283.77837282 661.79657844 306.08335876 661.80680847 C311.79874799 661.80941082 317.51413721 661.81199593 323.22952652 661.81440639 C323.93332216 661.81470384 324.6371178 661.81500129 325.36224058 661.81530775 C344.04454431 661.8229334 362.72684279 661.81650107 381.40914416 661.80571038 C383.42079427 661.80456266 385.43244439 661.80341948 387.44409451 661.80228355 C389.44350496 661.80115181 391.4429154 661.80000241 393.44232585 661.79885296 C402.70849106 661.79412057 411.97464159 661.79595407 421.24080658 661.80021477 C432.5379463 661.80515253 443.83501909 661.79910728 455.13214353 661.77932047 C460.89023529 661.76948195 466.64822537 661.76430614 472.40632248 661.77221298 C477.68632459 661.77931478 482.96612232 661.77236085 488.24609765 661.75460935 C490.14683267 661.75059394 492.04758659 661.75151526 493.94831434 661.75812822 C508.98046105 661.80591524 523.75530403 660.74192447 537.91539001 655.23576355 C539.0951239 654.7857196 539.0951239 654.7857196 540.2986908 654.32658386 C565.79905997 644.20485125 584.22808434 625.28998455 595.29039001 600.36076355 C601.09259818 586.21936304 602.58917936 572.56321888 602.56886292 557.43481445 C602.57387244 555.73002521 602.57975015 554.02523834 602.58641565 552.32045478 C602.60215022 547.65924848 602.60564271 542.99810258 602.60706425 538.33687294 C602.61076976 533.30155542 602.62593096 528.26627059 602.63967896 523.23097229 C602.66191949 514.51472125 602.67695204 505.79848188 602.68704605 497.08220863 C602.70165065 484.48004713 602.72719249 471.87792633 602.75537734 459.27578875 C602.80081296 438.82813163 602.83744112 418.38046865 602.86851501 397.93278503 C602.89871379 378.07339955 602.93307017 358.21402842 602.9730072 338.35466003 C602.97546875 337.12989481 602.9779303 335.90512959 602.98046644 334.64325026 C602.9928413 328.49877382 603.00529778 322.35429754 603.01779485 316.20982134 C603.12131428 265.26015488 603.20998924 214.3104713 603.29039001 163.36076355 C624.74039001 163.36076355 646.19039001 163.36076355 668.29039001 163.36076355 C668.38086983 221.01866905 668.45246591 278.67655822 668.49465133 336.3345206 C668.49964038 343.14600275 668.50482664 349.95748475 668.51011658 356.76896667 C668.51063961 357.44676644 668.51116265 358.1245662 668.51170154 358.82290535 C668.52872621 380.76543474 668.55875592 402.70792275 668.5955789 424.6504271 C668.63444491 447.85267332 668.65838792 471.05489495 668.66674399 494.25717604 C668.67222457 508.14706676 668.68951673 522.03683862 668.72205588 535.92669274 C668.74324645 545.45947287 668.74957977 554.9921918 668.74439552 564.52499376 C668.74184083 570.01982817 668.74567767 575.51445527 668.76721191 581.00925255 C668.78682467 586.05085587 668.78756544 591.09211449 668.77398559 596.13373442 C668.77230979 597.94697026 668.77725839 599.76022854 668.78992274 601.57342093 C669.00877688 634.8737981 656.30050533 664.34854958 633.04039001 688.04826355 C618.35719228 702.53321334 600.89688727 712.6988568 580.97789001 718.36076355 C580.33497009 718.54421326 579.69205017 718.72766296 579.02964783 718.91667175 C563.86009335 722.8026996 548.3259506 722.6498501 532.79229736 722.62145996 C530.43406799 722.62448487 528.0758396 722.62837605 525.71761292 722.63305253 C519.9460556 722.64222698 514.17455093 722.64219698 508.40298895 722.63814091 C501.48123558 722.63379349 494.55950621 722.64109206 487.63775732 722.64863219 C473.289831 722.66383357 458.9419224 722.66558122 444.59398971 722.66310916 C433.50997604 722.66127298 422.42596814 722.66304291 411.34195518 722.6673336 C409.7467273 722.66793602 408.15149941 722.66853722 406.55627152 722.66913721 C404.15209161 722.67004451 401.7479117 722.67095318 399.34373179 722.67186956 C377.00439643 722.68029338 354.66506323 722.68463875 332.32572651 722.68046284 C331.48441628 722.68030646 330.64310606 722.68015009 329.77630158 722.67998897 C325.51269583 722.67918325 321.24909008 722.67833748 316.98548434 722.67747567 C316.13879543 722.67730458 315.29210652 722.67713349 314.41976038 722.67695722 C312.70755147 722.67661056 310.99534256 722.67626203 309.28313365 722.67591163 C282.64890197 722.670556 256.01470341 722.67848271 229.38047791 722.69694519 C199.42110543 722.71768855 169.46175346 722.72838342 139.5023734 722.7243697 C136.30421682 722.72397439 133.10606025 722.72361284 129.90790367 722.72327232 C129.12050149 722.72318159 128.3330993 722.72309086 127.52183644 722.72299738 C115.66579726 722.72183428 103.80977888 722.72845775 91.95374489 722.73908424 C78.46001069 722.75116665 64.96632212 722.75266034 51.47258721 722.74029408 C44.59406522 722.7342714 37.71562437 722.73287555 30.83710861 722.74529648 C24.52849956 722.75619576 18.22005351 722.75300392 11.91145196 722.73903479 C9.64104678 722.73639897 7.37062865 722.73871891 5.10023621 722.74677066 C-12.57832742 722.80506613 -30.77969417 722.2627944 -47.58460999 716.17326355 C-48.4455426 715.87283142 -49.30647522 715.57239929 -50.1934967 715.26286316 C-66.95439467 709.20468849 -80.76851292 699.54193436 -93.70960999 687.36076355 C-94.30128967 686.83353699 -94.89296936 686.30631042 -95.50257874 685.7631073 C-115.52596802 667.16656286 -127.82447018 637.50996758 -128.98939979 610.47580087 C-129.13269991 605.02655473 -129.11513023 599.57806515 -129.09729004 594.12741089 C-129.10147119 592.02746653 -129.10695296 589.92752444 -129.11360985 587.82758647 C-129.12798066 582.10116093 -129.12384604 576.37488035 -129.11644304 570.64844716 C-129.11169285 564.45538133 -129.12423754 558.26234604 -129.13446045 552.06929016 C-129.15062781 540.65258278 -129.15310146 529.23593913 -129.14815546 517.81922572 C-129.14358709 507.26813776 -129.14421138 496.71706681 -129.1499958 486.16597939 C-129.15075269 484.74721061 -129.15150867 483.32844184 -129.15226375 481.90967307 C-129.15340902 479.77135671 -129.15455891 477.63304035 -129.15572299 475.494724 C-129.16641794 455.63138019 -129.1711636 435.76804201 -129.16325283 415.90469646 C-129.16295566 415.15694723 -129.16265848 414.409198 -129.16235231 413.6387897 C-129.15990371 407.56768644 -129.15729195 401.49658324 -129.15466817 395.42548005 C-129.14456824 371.75161857 -129.15292042 348.07782803 -129.17616272 324.40397644 C-129.20227359 297.76561179 -129.21507306 271.12728984 -129.20797497 244.48891193 C-129.20725898 241.64493963 -129.20658458 238.80096732 -129.20593452 235.95699501 C-129.20576472 235.25681038 -129.20559491 234.55662575 -129.20541995 233.83522341 C-129.2031235 223.29695934 -129.2110626 212.7587351 -129.224226 202.22047997 C-129.23918165 190.22649704 -129.23954916 178.23263223 -129.22215509 166.23864301 C-129.21366436 160.12575566 -129.21144847 154.01304541 -129.22680664 147.90016747 C-129.24072101 142.2922855 -129.23580423 136.68473125 -129.2165674 131.07686792 C-129.21282772 129.06021081 -129.2156699 127.04352701 -129.22617906 125.02689382 C-129.37645446 93.95316816 -120.70445215 66.3177173 -100.70960999 42.36076355 C-99.9632428 41.4377948 -99.21687561 40.51482605 -98.44789124 39.56388855 C-85.11109735 23.89485397 -67.05288501 12.6632202 -47.70960999 5.98576355 C-47.05935852 5.75896912 -46.40910706 5.53217468 -45.739151 5.29850769 C-30.70756303 0.49411346 -15.63466396 -0.07155674 0 0 Z " fill="#444443" transform="translate(128.70960998535156,-0.3607635498046875)"/>
<path d="M0 0 C0.96244629 0.00418945 1.92489258 0.00837891 2.91650391 0.01269531 C13.59114344 0.18074357 24.14740924 1.43300781 33.3125 7.3125 C36.67106947 11.64613803 37.43318888 15.74208932 37.45776367 21.12182617 C37.46414352 22.07349167 37.47052338 23.02515717 37.47709656 24.00566101 C37.47876579 25.54006584 37.47876579 25.54006584 37.48046875 27.10546875 C37.48379715 28.1660701 37.48712555 29.22667145 37.49055481 30.31941223 C37.49561653 32.56458096 37.49796337 34.80975721 37.49780273 37.05493164 C37.49998067 40.46969218 37.51812099 43.8841251 37.53710938 47.29882812 C37.54004525 49.4843739 37.54202875 51.6699212 37.54296875 53.85546875 C37.55015427 54.86828415 37.55733978 55.88109955 37.56474304 56.92460632 C37.5418595 64.12018901 37.44116127 71.76754923 33.1875 77.875 C30.24080681 80.37328336 28.74405356 81.13100961 24.890625 80.8515625 C20.73944151 79.98358777 16.75050901 78.62153531 12.76806641 77.18041992 C1.71727574 73.18175958 -8.98905868 72.70017138 -19.74609375 77.70703125 C-33.91272341 85.43941477 -44.33403089 97.06690305 -53.25264835 110.29188919 C-54.6875 112.3125 -54.6875 112.3125 -56.23348904 114.05205917 C-62.22927933 121.39530839 -61.49597648 129.44614987 -61.38110352 138.41113281 C-61.38108804 140.13831783 -61.38378543 141.86550467 -61.38897705 143.59268188 C-61.39458959 147.29729705 -61.38167035 151.00121015 -61.35424995 154.70572662 C-61.31151256 160.56361851 -61.31354606 166.42098121 -61.32200623 172.2789917 C-61.33249711 183.65023887 -61.29983738 195.02114993 -61.26071167 206.39231873 C-61.21175612 220.88100105 -61.17574416 235.36951902 -61.19204658 249.85829043 C-61.19702048 255.68196328 -61.17702781 261.50485732 -61.13770878 267.32839251 C-61.11809113 270.94730259 -61.11896135 274.56599929 -61.12532043 278.18494797 C-61.12398298 279.86317032 -61.1140313 281.54141116 -61.09484673 283.21952438 C-61.06979961 285.51039227 -61.07546016 287.79922838 -61.08863831 290.09014893 C-61.08361077 291.37173512 -61.07858324 292.6533213 -61.07340336 293.97374344 C-61.85106867 298.20179972 -63.38417583 299.65263216 -66.6875 302.3125 C-69.37109375 303.421875 -69.37109375 303.421875 -72.125 304.0625 C-73.03121094 304.28421875 -73.93742187 304.5059375 -74.87109375 304.734375 C-80.51854087 305.89362905 -85.92540146 306.48138637 -91.69140625 306.515625 C-92.45114243 306.52132507 -93.2108786 306.52702515 -93.99363708 306.53289795 C-95.59803901 306.54230703 -97.20245991 306.54886557 -98.80688477 306.55273438 C-101.2186215 306.56237457 -103.62948073 306.59340892 -106.04101562 306.625 C-130.00463269 306.78941351 -130.00463269 306.78941351 -138.6875 299.3125 C-139.89920596 296.88908808 -139.81716763 295.35361934 -139.82451439 292.64503765 C-139.82958893 291.6548547 -139.83466347 290.66467176 -139.83989179 289.64448327 C-139.84038955 288.54869023 -139.84088731 287.4528972 -139.84140015 286.32389832 C-139.8457824 285.16598842 -139.85016465 284.00807853 -139.8546797 282.81508046 C-139.86576073 279.59120104 -139.87229723 276.36734903 -139.87686086 273.14345491 C-139.882811 269.67027767 -139.89442223 266.19711839 -139.90515137 262.72395325 C-139.92968774 254.33166949 -139.94430374 245.93937978 -139.95721143 237.54707119 C-139.96092228 235.17768874 -139.96489559 232.80830689 -139.9689641 230.43892503 C-139.99419803 215.7327201 -140.01625619 201.02651427 -140.02869225 186.32029247 C-140.03162205 182.91299117 -140.0345837 179.5056899 -140.03759766 176.09838867 C-140.03834371 175.25149663 -140.03908976 174.40460459 -140.03985842 173.53204916 C-140.05251721 159.80705516 -140.08574665 146.08219057 -140.12739949 132.35725709 C-140.16979083 118.2738242 -140.19338398 104.19045761 -140.19861281 90.10696107 C-140.20202998 82.19643968 -140.21382099 74.28612054 -140.24671555 66.37566185 C-140.27467877 59.63996444 -140.28573189 52.90451074 -140.27452008 46.16875979 C-140.26932384 42.73105434 -140.27228148 39.29385955 -140.29698563 35.85622787 C-140.31952525 32.1310717 -140.31145118 28.40721341 -140.29550171 24.68205261 C-140.31632484 23.04840131 -140.31632484 23.04840131 -140.33756864 21.38174695 C-140.26008915 14.0675732 -140.26008915 14.0675732 -137.3064518 10.17261219 C-128.92981481 4.22310041 -117.6829135 4.83703555 -107.80517578 4.92138672 C-105.55830679 4.93753013 -103.31322245 4.92142188 -101.06640625 4.90234375 C-91.97016439 4.88898344 -83.3924745 5.14384371 -75.625 10.375 C-72.11273356 13.88726644 -72.4785677 17.22908731 -72.37109375 21.9453125 C-72.35031265 22.69714813 -72.32953156 23.44898376 -72.30812073 24.22360229 C-72.24267295 26.62814085 -72.18376262 29.03278967 -72.125 31.4375 C-72.08181023 33.06641771 -72.03819579 34.69532422 -71.99414062 36.32421875 C-71.88699649 40.32019915 -71.78571567 44.31629059 -71.6875 48.3125 C-70.9356543 47.34054687 -70.18380859 46.36859375 -69.40917969 45.3671875 C-63.76848598 38.08562871 -58.0031664 31.02804099 -51.6875 24.3125 C-50.75744141 23.28576172 -50.75744141 23.28576172 -49.80859375 22.23828125 C-36.39792753 7.98769857 -19.55761083 -0.11663897 0 0 Z " fill="#358DDD" transform="translate(268.6875,304.6875)"/>
<path d="M0 0 C4.99465352 -0.10037953 9.98869465 -0.17216457 14.98413086 -0.21972656 C16.67629244 -0.23959476 18.36838771 -0.26669907 20.06030273 -0.30175781 C38.92352084 -0.6822677 55.57944016 2.50603157 70.3125 15.375 C71.89376417 16.89741453 73.45718752 18.43863136 75 20 C75.70898438 20.68707031 76.41796875 21.37414062 77.1484375 22.08203125 C92.12694524 37.5483448 94.18553846 57.53847113 94.0625 78 C94.05747576 79.45702971 94.05291449 80.9140611 94.04882812 82.37109375 C94.03789388 85.9140977 94.02068 89.45703797 94 93 C85.91139479 91.42837982 78.18746656 89.74828044 70.625 86.4375 C69.82755371 86.09235352 69.03010742 85.74720703 68.20849609 85.39160156 C54.16155576 79.11441869 42.88396413 70.77858688 32 60 C31.26394531 59.32453125 30.52789063 58.6490625 29.76953125 57.953125 C14.44107954 43.63433179 4.68348565 23.23125513 0 3 C0 2.01 0 1.02 0 0 Z " fill="#348CDD" transform="translate(702,3)"/>
</svg>
